<?xml version="1.0" encoding="utf-8"?>
<!-- Generator: Adobe Illustrator 23.0.1, SVG Export Plug-In . SVG Version: 6.00 Build 0)  -->
<svg version="1.2" baseProfile="tiny" id="レイヤー_1"
	 xmlns="http://www.w3.org/2000/svg" xmlns:xlink="http://www.w3.org/1999/xlink" x="0px" y="0px" width="12px" height="12px"
	 viewBox="0 0 12 12" xml:space="preserve">
<g>
	<path fill="#FFFFFF" d="M5.66,10.98L2.08,7.4L5.66,10.98L5.66,10.98z M2.08,4.6l3.58-3.58L2.08,4.6z"/>
	<polygon points="0,5.97 0.02,6 0,6.03 5.65,11.68 6.36,10.97 1.39,6 6.36,1.03 5.65,0.32 	"/>
</g>
<g>
	<path fill="#FFFFFF" d="M10.3,10.98L6.72,7.4L10.3,10.98L10.3,10.98z M6.72,4.6l3.58-3.58L6.72,4.6z"/>
	<polygon points="4.64,5.97 4.66,6 4.64,6.03 10.29,11.68 11,10.97 6.03,6 11,1.03 10.29,0.32 	"/>
</g>
</svg>
