<?xml version="1.0" encoding="utf-8"?>
<!-- Generator: Adobe Illustrator 23.0.1, SVG Export Plug-In . SVG Version: 6.00 Build 0)  -->
<svg version="1.2" baseProfile="tiny" id="レイヤー_1"
	 xmlns="http://www.w3.org/2000/svg" xmlns:xlink="http://www.w3.org/1999/xlink" x="0px" y="0px" width="100px" height="11px"
	 viewBox="0 0 100 11" xml:space="preserve">
<g>
	<path fill="#FFFFFF" d="M0,10.68V0.18h5.41c1.01,0,1.77,0.09,2.3,0.26C8.24,0.62,8.67,0.93,8.99,1.4c0.33,0.46,0.49,1.03,0.49,1.7
		c0,0.58-0.13,1.09-0.38,1.51S8.51,5.36,8.08,5.63C7.81,5.8,7.43,5.94,6.94,6.05c0.39,0.13,0.67,0.26,0.84,0.39
		C7.9,6.53,8.08,6.71,8.3,6.99c0.23,0.28,0.38,0.5,0.46,0.65l1.58,3.04H6.66L4.93,7.47C4.71,7.06,4.51,6.78,4.34,6.66
		C4.11,6.5,3.84,6.42,3.55,6.42H3.26v4.26H0L0,10.68z M3.26,4.43h1.37c0.15,0,0.44-0.05,0.86-0.14C5.7,4.25,5.88,4.14,6.02,3.96
		c0.14-0.18,0.21-0.38,0.21-0.61c0-0.34-0.11-0.6-0.33-0.78C5.69,2.39,5.28,2.29,4.69,2.29H3.26V4.43z"/>
	<path fill="#FFFFFF" d="M11.37,0.18h8.7v2.24h-5.44v1.67h5.06v2.14h-5.06V8.3h5.61v2.38h-8.86V0.18H11.37z"/>
	<path fill="#FFFFFF" d="M22,0.18h3.03l3.96,5.81V0.18h3.06v10.51h-3.06l-3.94-5.77v5.77H22V0.18z"/>
	<path fill="#FFFFFF" d="M33.47,0.18h9.87v2.59h-3.31v7.91h-3.25V2.77h-3.31L33.47,0.18L33.47,0.18z"/>
	<path fill="#FFFFFF" d="M44.86,10.68V0.18h5.41c1.01,0,1.77,0.09,2.3,0.26c0.53,0.18,0.96,0.49,1.28,0.96
		c0.33,0.46,0.49,1.03,0.49,1.7c0,0.58-0.13,1.09-0.38,1.51c-0.25,0.43-0.59,0.76-1.03,1.03c-0.28,0.17-0.66,0.31-1.14,0.42
		c0.39,0.13,0.67,0.26,0.84,0.39c0.12,0.09,0.29,0.27,0.52,0.55s0.38,0.5,0.46,0.65l1.58,3.04h-3.67l-1.74-3.21
		c-0.22-0.41-0.41-0.69-0.59-0.81c-0.23-0.16-0.5-0.24-0.79-0.24h-0.29v4.26L44.86,10.68L44.86,10.68z M48.12,4.43h1.37
		c0.15,0,0.44-0.05,0.86-0.14c0.21-0.04,0.39-0.15,0.53-0.33c0.14-0.18,0.21-0.38,0.21-0.61c0-0.34-0.11-0.6-0.33-0.78
		c-0.21-0.18-0.62-0.28-1.21-0.28h-1.43C48.12,2.29,48.12,4.43,48.12,4.43z"/>
	<path fill="#FFFFFF" d="M62.7,8.95h-3.69l-0.51,1.74h-3.32l3.96-10.51h3.54l3.95,10.51h-3.4L62.7,8.95z M62.03,6.68L60.86,2.9
		l-1.15,3.78C59.71,6.68,62.03,6.68,62.03,6.68z"/>
	<path fill="#FFFFFF" d="M74.39,6.38l2.84,0.86c-0.19,0.8-0.49,1.46-0.91,2c-0.41,0.54-0.92,0.94-1.53,1.21
		c-0.61,0.28-1.39,0.41-2.33,0.41c-1.14,0-2.08-0.17-2.8-0.5c-0.73-0.33-1.35-0.92-1.88-1.75c-0.53-0.84-0.79-1.91-0.79-3.21
		c0-1.74,0.46-3.08,1.39-4.01S70.63,0,72.32,0c1.33,0,2.36,0.27,3.13,0.8c0.76,0.54,1.32,1.36,1.69,2.47l-2.87,0.64
		c-0.1-0.32-0.21-0.56-0.31-0.7c-0.18-0.25-0.41-0.44-0.67-0.58c-0.26-0.13-0.56-0.2-0.88-0.2c-0.74,0-1.3,0.29-1.69,0.89
		c-0.29,0.44-0.44,1.13-0.44,2.07c0,1.16,0.18,1.96,0.53,2.39c0.36,0.43,0.85,0.65,1.49,0.65c0.62,0,1.09-0.18,1.41-0.53
		C74.02,7.55,74.25,7.04,74.39,6.38z"/>
	<path fill="#FFFFFF" d="M78.83,0.18h3.25v3.97l3.4-3.97h4.32l-3.84,3.97l4.01,6.54h-4l-2.22-4.32l-1.68,1.76v2.56h-3.25L78.83,0.18
		L78.83,0.18z"/>
	<path fill="#FFFFFF" d="M90.48,7.21l3.09-0.19c0.07,0.5,0.2,0.88,0.41,1.15c0.34,0.43,0.81,0.64,1.43,0.64
		c0.46,0,0.82-0.11,1.07-0.33s0.38-0.47,0.38-0.76c0-0.28-0.12-0.52-0.36-0.73s-0.79-0.42-1.66-0.61C93.41,6.06,92.4,5.64,91.8,5.1
		c-0.61-0.53-0.92-1.21-0.92-2.03c0-0.54,0.16-1.05,0.47-1.53s0.78-0.86,1.41-1.13S94.24,0,95.34,0c1.34,0,2.37,0.25,3.08,0.75
		s1.13,1.29,1.26,2.38l-3.06,0.18c-0.08-0.48-0.25-0.82-0.51-1.03s-0.62-0.33-1.08-0.33c-0.38,0-0.66,0.08-0.86,0.24
		c-0.19,0.16-0.29,0.36-0.29,0.58c0,0.17,0.08,0.32,0.24,0.45c0.15,0.14,0.52,0.27,1.09,0.39c1.42,0.31,2.44,0.61,3.05,0.93
		c0.61,0.31,1.06,0.7,1.34,1.16c0.26,0.47,0.4,0.99,0.4,1.56c0,0.68-0.19,1.29-0.56,1.86c-0.38,0.57-0.89,1-1.56,1.29
		s-1.51,0.44-2.53,0.44c-1.79,0-3.03-0.34-3.71-1.03C90.96,9.14,90.57,8.27,90.48,7.21z"/>
</g>
</svg>
