<?xml version="1.0" encoding="utf-8"?>
<!-- Generator: Adobe Illustrator 23.0.1, SVG Export Plug-In . SVG Version: 6.00 Build 0)  -->
<svg version="1.2" baseProfile="tiny" id="レイヤー_1"
	 xmlns="http://www.w3.org/2000/svg" xmlns:xlink="http://www.w3.org/1999/xlink" x="0px" y="0px" width="12px" height="12px"
	 viewBox="0 0 12 12" xml:space="preserve">
<g>
	<g>
		<path fill="#FFFFFF" d="M6.34,10.98L9.92,7.4L6.34,10.98L6.34,10.98z M6.34,1.02L9.92,4.6L6.34,1.02z"/>
		<polygon points="6.35,0.32 5.64,1.03 10.61,6 5.64,10.97 6.35,11.68 12,6.03 11.98,6 12,5.97 		"/>
	</g>
	<g>
		<path fill="#FFFFFF" d="M1.7,10.98L5.28,7.4L1.7,10.98L1.7,10.98z M1.7,1.02L5.28,4.6L1.7,1.02z"/>
		<polygon points="1.71,0.32 1,1.03 5.97,6 1,10.97 1.71,11.68 7.36,6.03 7.34,6 7.36,5.97 		"/>
	</g>
</g>
</svg>
